<?xml version="1.0" encoding="UTF-8" standalone="no"?>
<svg width="18px" height="18px" viewBox="0 0 18 18" version="1.1" xmlns="http://www.w3.org/2000/svg" xmlns:xlink="http://www.w3.org/1999/xlink" xmlns:sketch="http://www.bohemiancoding.com/sketch/ns">
    <!-- Generator: Sketch 3.4.4 (17248) - http://www.bohemiancoding.com/sketch -->
    <title>delete</title>
    <desc>Created with Sketch.</desc>
    <defs></defs>
    <g id="Page-1" stroke="none" stroke-width="1" fill="none" fill-rule="evenodd" sketch:type="MSPage">
        <g id="delete" sketch:type="MSArtboardGroup" fill="#FF7474">
            <path d="M5.23266236,8.01918959 L6.37854028,15.925367 L5,14.9968872 L13,14.9968872 L11.6183174,15.925367 L12.7661358,8.00580423 L15,8.00183514 L13.8109379,16.0715202 L13.6741271,17 L12.7146278,17 L5.28223051,17 L4.3227312,17 L4.1859204,16.0715202 L3,8.02315655 L5.23266236,8.01918959 Z" id="Shape" sketch:type="MSShapeGroup"></path>
            <path d="M3.07692308,6 L14.9230769,6 L16,6 L16,4 L14.9230769,4 L3.07692308,4 L2,4 L2,6 L3.07692308,6 L3.07692308,6 Z" id="Shape" sketch:type="MSShapeGroup"></path>
            <path d="M7.8,3 L10.2,3 L11,3 L11,1 L10.2,1 L7.8,1 L7,1 L7,3 L7.8,3 L7.8,3 Z" id="Shape" sketch:type="MSShapeGroup"></path>
        </g>
    </g>
</svg>