<?xml version="1.0" encoding="UTF-8" standalone="no"?>
<svg width="30px" height="30px" viewBox="0 0 30 30" version="1.1" xmlns="http://www.w3.org/2000/svg" xmlns:xlink="http://www.w3.org/1999/xlink" xmlns:sketch="http://www.bohemiancoding.com/sketch/ns">
    <!-- Generator: Sketch 3.4.4 (17248) - http://www.bohemiancoding.com/sketch -->
    <title>map</title>
    <desc>Created with Sketch.</desc>
    <defs></defs>
    <g id="Page-1" stroke="none" stroke-width="1" fill="none" fill-rule="evenodd" sketch:type="MSPage">
        <g id="map" sketch:type="MSArtboardGroup" fill="#626262">
            <g id="Group" sketch:type="MSLayerGroup" transform="translate(1.000000, 1.000000)">
                <path d="M5,8 L5,8 C6.65685425,8 8,6.65685425 8,5 C8,3.34314575 6.65685425,2 5,2 C3.34314575,2 2,3.34314575 2,5 C2,6.65685425 3.34314575,8 5,8 L5,8 Z M5,10 L5,10 C2.23857625,10 0,7.76142375 0,5 C0,2.23857625 2.23857625,0 5,0 C7.76142375,0 10,2.23857625 10,5 C10,7.76142375 7.76142375,10 5,10 L5,10 Z" id="Shape" sketch:type="MSShapeGroup"></path>
                <path d="M22.6666667,8 L22.6666667,8 C24.3235209,8 25.6666667,6.65685425 25.6666667,5 C25.6666667,3.34314575 24.3235209,2 22.6666667,2 C21.0098124,2 19.6666667,3.34314575 19.6666667,5 C19.6666667,6.65685425 21.0098124,8 22.6666667,8 L22.6666667,8 Z M22.6666667,10 L22.6666667,10 C19.9052429,10 17.6666667,7.76142375 17.6666667,5 C17.6666667,2.23857625 19.9052429,0 22.6666667,0 C25.4280904,0 27.6666667,2.23857625 27.6666667,5 C27.6666667,7.76142375 25.4280904,10 22.6666667,10 L22.6666667,10 Z" id="Shape" sketch:type="MSShapeGroup"></path>
                <path d="M22.6666667,25.6666667 L22.6666667,25.6666667 C24.3235209,25.6666667 25.6666667,24.3235209 25.6666667,22.6666667 C25.6666667,21.0098124 24.3235209,19.6666667 22.6666667,19.6666667 C21.0098124,19.6666667 19.6666667,21.0098124 19.6666667,22.6666667 C19.6666667,24.3235209 21.0098124,25.6666667 22.6666667,25.6666667 L22.6666667,25.6666667 Z M22.6666667,27.6666667 L22.6666667,27.6666667 C19.9052429,27.6666667 17.6666667,25.4280904 17.6666667,22.6666667 C17.6666667,19.9052429 19.9052429,17.6666667 22.6666667,17.6666667 C25.4280904,17.6666667 27.6666667,19.9052429 27.6666667,22.6666667 C27.6666667,25.4280904 25.4280904,27.6666667 22.6666667,27.6666667 L22.6666667,27.6666667 Z" id="Shape" sketch:type="MSShapeGroup"></path>
                <path d="M5,25.6666667 L5,25.6666667 C6.65685425,25.6666667 8,24.3235209 8,22.6666667 C8,21.0098124 6.65685425,19.6666667 5,19.6666667 C3.34314575,19.6666667 2,21.0098124 2,22.6666667 C2,24.3235209 3.34314575,25.6666667 5,25.6666667 L5,25.6666667 Z M5,27.6666667 L5,27.6666667 C2.23857625,27.6666667 0,25.4280904 0,22.6666667 C0,19.9052429 2.23857625,17.6666667 5,17.6666667 C7.76142375,17.6666667 10,19.9052429 10,22.6666667 C10,25.4280904 7.76142375,27.6666667 5,27.6666667 L5,27.6666667 Z" id="Shape" sketch:type="MSShapeGroup"></path>
            </g>
            <g id="Group" sketch:type="MSLayerGroup" transform="translate(5.000000, 5.000000)">
                <path d="M5.5,20 L14.5,20 L15.5,20 L15.5,18 L14.5,18 L5.5,18 L4.5,18 L4.5,20 L5.5,20 L5.5,20 Z" id="Shape" sketch:type="MSShapeGroup"></path>
                <path d="M5.5,2 L14.5,2 L15.5,2 L15.5,0 L14.5,0 L5.5,0 L4.5,0 L4.5,2 L5.5,2 L5.5,2 Z" id="Shape" sketch:type="MSShapeGroup"></path>
                <path d="M20,14 L20,6 L20,5 L18,5 L18,6 L18,14 L18,15 L20,15 L20,14 L20,14 Z" id="Shape" sketch:type="MSShapeGroup"></path>
                <path d="M2,14 L2,6 L2,5 L0,5 L0,6 L0,14 L0,15 L2,15 L2,14 L2,14 Z" id="Shape" sketch:type="MSShapeGroup"></path>
            </g>
        </g>
    </g>
</svg>