<?xml version="1.0" encoding="UTF-8" standalone="no"?>
<svg width="30px" height="30px" viewBox="0 0 30 30" version="1.1" xmlns="http://www.w3.org/2000/svg" xmlns:xlink="http://www.w3.org/1999/xlink" xmlns:sketch="http://www.bohemiancoding.com/sketch/ns">
    <!-- Generator: Sketch 3.4.4 (17248) - http://www.bohemiancoding.com/sketch -->
    <title>presentation</title>
    <desc>Created with Sketch.</desc>
    <defs></defs>
    <g id="Page-1" stroke="none" stroke-width="1" fill="none" fill-rule="evenodd" sketch:type="MSPage">
        <g id="presentation" sketch:type="MSArtboardGroup" fill="#626262">
            <path d="M5,7 L5,19 L25,19 L25,7 L5,7 Z M27,5 L27,21 L3,21 L3,5 L27,5 Z" id="Shape" sketch:type="MSShapeGroup"></path>
            <path d="M14.1679495,19.4452998 L8.1679497,28.4452998 L9.8320503,29.5547002 L15.8320501,20.5547002 L14.1679495,19.4452998 L14.1679495,19.4452998 Z" id="Shape" sketch:type="MSShapeGroup"></path>
            <path d="M15.1679497,20.5547002 L21.1679495,29.5547002 L22.8320501,28.4452998 L16.8320503,19.4452998 L15.1679497,20.5547002 L15.1679497,20.5547002 Z" id="Shape" sketch:type="MSShapeGroup"></path>
            <path d="M16.4074074,2.07563435e-15 L13,2.99277511e-16 L12,-2.22044605e-16 L12,2 L13,2 L16.4074074,2 L17.4074074,2 L17.4074074,2.59695647e-15 L16.4074074,2.07563435e-15 L16.4074074,2.07563435e-15 Z" id="Shape" sketch:type="MSShapeGroup"></path>
        </g>
    </g>
</svg>